<svg width="3009" height="588" viewBox="0 0 3009 588" fill="none" xmlns="http://www.w3.org/2000/svg">
<g clip-path="url(#clip0_1_76)">
<path d="M0 587.972C0.75842 587.972 1.54493 588 2.30335 588C164.914 588 296.767 456.456 297.329 294.014H0V587.972Z" fill="#4A3077"/>
<path d="M0 293.958C163.65 295.222 296.767 163.229 297.329 0H167.442C74.9712 0 0 74.9712 0 167.47V293.986V293.958Z" fill="#4A3077"/>
<path d="M594.685 0.0280896C593.927 0.0280896 593.14 0 592.382 0C429.771 0 297.918 131.544 297.357 293.986H594.713V0.0280896H594.685Z" fill="#A17EEF"/>
<path d="M594.685 294.042C431.035 292.778 297.918 424.771 297.357 588H410.108C512.046 588 594.713 505.36 594.713 403.395V294.014L594.685 294.042Z" fill="#4A3077"/>
<path d="M1911.47 74.2408C1911.3 74.2408 1911.13 74.2408 1910.96 74.2408C1875.38 74.2408 1846.53 103.033 1846.39 138.594H1911.47V74.2689V74.2408Z" fill="#4A3077"/>
<path d="M1012.43 261.964C1004.6 277.975 993.895 291.317 980.328 302.02C966.76 312.694 950.89 320.783 932.716 326.317C914.514 331.851 895.076 334.604 874.374 334.604H799.992V454.743H734.853V80.9824H882.211C903.924 80.9824 923.587 83.9318 941.199 89.8026C958.811 95.6733 973.755 104.128 986.058 115.167C998.333 126.207 1007.77 139.381 1014.34 154.69C1020.92 169.998 1024.23 187.245 1024.23 206.487C1024.23 227.498 1020.3 246.009 1012.46 262.02L1012.43 261.964ZM935.497 157.133C920.834 145.869 901.199 140.252 876.565 140.252H799.964V275.334H876.565C901.564 275.334 921.283 269.183 935.75 256.852C950.216 244.52 957.435 228.172 957.435 207.807C957.435 185.307 950.103 168.425 935.469 157.161L935.497 157.133Z" fill="#4A3077"/>
<path d="M1215.86 462.72C1210.16 477.299 1204.29 489.602 1198.25 499.546C1192.18 509.518 1185.44 517.607 1177.97 523.843C1170.49 530.079 1162.29 534.602 1153.42 537.467C1144.51 540.304 1134.37 541.736 1123 541.736C1109.46 541.736 1097.46 540.191 1086.96 537.158C1076.45 534.096 1066.23 529.883 1056.25 524.489L1078.14 476.063C1084.18 479.265 1090.33 481.849 1096.56 483.816C1102.8 485.754 1109.29 486.765 1116.06 486.765C1125.3 486.765 1132.97 484.462 1139.01 479.855C1145.05 475.22 1150.75 466.709 1156.08 454.265L1038.61 172.835H1107.49L1187.57 382.131L1260.44 173.622C1260.61 173.144 1261.06 172.835 1261.53 172.835H1327.96L1215.86 462.748V462.72Z" fill="#4A3077"/>
<path d="M1634.62 180.672C1650.12 171.515 1668.52 166.937 1689.9 166.937C1720.88 166.937 1745.1 176.29 1762.54 194.97C1779.98 213.65 1788.72 240.279 1788.72 274.801V454.715H1723.58V294.913C1723.58 272.554 1718.61 255.503 1708.69 243.762C1698.78 232.048 1684.79 226.178 1666.7 226.178C1648.61 226.178 1634.54 232.133 1623.38 244.015C1612.23 255.896 1606.64 273.228 1606.64 295.952V454.687H1541.5V294.351C1541.5 272.329 1536.53 255.475 1526.61 243.734C1516.7 232.02 1502.71 226.15 1484.62 226.15C1466.53 226.15 1452.01 232.357 1441.05 244.801C1430.07 257.245 1424.57 274.464 1424.57 296.458V454.659H1359.43V172.807H1381.42C1405.24 172.807 1424.57 192.133 1424.57 215.953C1429.2 209.492 1434.17 203.397 1439.51 197.639C1444.85 191.88 1450.97 186.684 1457.91 182.021C1464.85 177.358 1472.68 173.678 1481.39 170.982C1490.1 168.285 1499.79 166.937 1510.46 166.937C1530.74 166.937 1547.91 171.515 1561.95 180.672C1576 189.83 1586.75 201.964 1594.23 217.049C1605.63 201.964 1619.06 189.858 1634.56 180.672H1634.62Z" fill="#4A3077"/>
<path d="M1846.42 454.715V172.807H1911.55V454.715H1846.42Z" fill="#4A3077"/>
<path d="M2048.21 389.828C2062.79 402.103 2080.6 408.255 2101.61 408.255C2117.62 408.255 2131.5 405.417 2143.27 399.715C2155.01 394.013 2166.58 385.67 2177.96 374.631L2215.88 408.255C2202.34 424.266 2186.24 437.074 2167.56 446.709C2148.88 456.316 2126.52 461.119 2100.57 461.119C2080.29 461.119 2061.33 457.552 2043.72 450.445C2026.1 443.338 2010.8 433.367 1997.79 420.558C1984.78 407.749 1974.56 392.356 1967.09 374.378C1959.62 356.401 1955.88 336.401 1955.88 314.323C1955.88 294.042 1959.25 274.997 1966.02 257.189C1972.79 239.408 1982.31 223.818 1994.59 210.476C2006.86 197.133 2021.36 186.543 2038.1 178.706C2054.81 170.869 2073.32 166.965 2093.63 166.965C2116.05 166.965 2135.71 171.066 2152.62 179.24C2169.53 187.442 2183.57 198.453 2194.81 212.329C2206.05 226.206 2214.47 242.413 2220.18 260.924C2225.88 279.436 2228.71 298.845 2228.71 319.126C2228.71 321.991 2228.63 324.828 2228.43 327.665C2228.27 330.531 2227.98 333.536 2227.65 336.738H2020.49C2024.39 359.884 2033.66 377.581 2048.24 389.856L2048.21 389.828ZM2164.61 293.986C2163.55 283.677 2161.22 273.958 2157.68 264.885C2154.11 255.812 2149.31 247.975 2143.27 241.402C2137.2 234.829 2130.01 229.576 2121.64 225.644C2113.27 221.739 2103.74 219.773 2093.07 219.773C2073.13 219.773 2056.67 226.627 2043.69 240.335C2030.68 254.043 2022.76 271.936 2019.92 293.986H2164.61Z" fill="#4A3077"/>
<path d="M2334.92 454.715H2269.78V172.807H2290.68C2315.12 172.807 2334.92 192.611 2334.92 217.049C2339.53 210.223 2344.58 203.846 2350.09 197.919C2355.6 191.993 2361.97 186.712 2369.25 182.021C2376.52 177.358 2384.53 173.678 2393.21 170.982C2401.89 168.285 2411.75 166.937 2422.76 166.937C2454.7 166.937 2479.36 176.74 2496.77 196.29C2514.16 215.869 2522.87 242.217 2522.87 275.306V454.687H2457.73V294.885C2457.73 272.863 2452.53 255.896 2442.11 244.015C2431.69 232.105 2416.97 226.178 2397.93 226.178C2378.88 226.178 2364.05 232.301 2352.42 244.548C2340.76 256.795 2334.95 273.93 2334.95 295.952V454.687L2334.92 454.715Z" fill="#4A3077"/>
<path d="M2655.26 366.513C2655.26 379.013 2658.29 388.03 2664.33 393.564C2670.37 399.097 2678.91 401.878 2689.95 401.878C2703.82 401.878 2717.17 398.676 2730 392.272V445.136C2721.8 449.771 2713.09 453.338 2703.85 455.81C2694.58 458.282 2683.91 459.546 2671.83 459.546C2659.75 459.546 2649.16 458.114 2639.13 455.277C2629.08 452.411 2620.37 447.777 2613.01 441.372C2605.65 434.94 2600 426.485 2596.04 415.951C2592.08 405.446 2590.12 392.328 2590.12 376.626V227.863H2554.33V172.864H2590.12V95.4486H2600.26C2630.62 95.4486 2655.23 120.055 2655.23 150.42V172.864H2731.04V227.863H2655.23V366.57L2655.26 366.513Z" fill="#4A3077"/>
<path d="M2944.1 419.996C2934.49 431.4 2922.22 441.007 2907.25 448.816C2892.3 456.653 2874.16 460.557 2852.78 460.557C2839.24 460.557 2826.43 458.675 2814.36 454.94C2802.25 451.204 2791.66 445.698 2782.59 438.395C2773.51 431.091 2766.21 422.018 2760.7 411.176C2755.17 400.333 2752.42 387.777 2752.42 373.536V372.468C2752.42 357.16 2755.25 343.817 2760.96 332.413C2766.66 321.036 2774.58 311.598 2784.72 304.126C2794.86 296.654 2806.97 291.037 2821.04 287.301C2835.09 283.565 2850.31 281.683 2866.69 281.683C2883.06 281.683 2898.26 282.75 2910.2 284.885C2922.11 287.02 2933.6 289.885 2944.63 293.424V286.486C2944.63 266.908 2938.68 251.964 2926.74 241.627C2914.8 231.318 2897.64 226.15 2875.23 226.15C2859.21 226.15 2844.97 227.751 2832.5 230.953C2820.03 234.155 2807.42 238.425 2794.58 243.762L2776.97 191.964C2792.61 184.858 2808.65 179.156 2825.03 174.886C2841.41 170.616 2861.15 168.482 2884.3 168.482C2926.29 168.482 2957.44 178.903 2977.72 199.717C2998 220.532 3008.15 249.829 3008.15 287.553V454.659H2978.79C2959.63 454.659 2944.1 439.125 2944.1 419.968V419.996ZM2945.7 335.109C2937.5 331.907 2927.81 329.238 2916.6 327.104C2905.39 324.969 2893.54 323.901 2881.1 323.901C2860.82 323.901 2844.97 327.834 2833.57 335.643C2822.16 343.48 2816.49 354.688 2816.49 369.266V370.334C2816.49 383.873 2821.74 394.182 2832.25 401.288C2842.75 408.423 2855.65 411.962 2870.96 411.962C2881.63 411.962 2891.52 410.558 2900.59 407.693C2909.66 404.856 2917.58 400.839 2924.35 395.67C2931.12 390.502 2936.38 384.294 2940.11 376.991C2943.85 369.688 2945.73 361.598 2945.73 352.693V335.081L2945.7 335.109Z" fill="#4A3077"/>
</g>
<defs>
<clipPath id="clip0_1_76">
<rect width="3008.17" height="588" fill="white"/>
</clipPath>
</defs>
</svg>
