<svg width="3017" height="596" viewBox="0 0 3017 596" fill="none" xmlns="http://www.w3.org/2000/svg">
<g filter="url(#filter0_d_51_19)">
<g clip-path="url(#clip0_51_19)">
<path d="M4 587.972C4.75842 587.972 5.54493 588 6.30335 588C168.914 588 300.767 456.456 301.329 294.014H4V587.972Z" fill="white"/>
<path d="M4 293.958C167.65 295.222 300.767 163.229 301.329 0H171.442C78.9712 0 4 74.9712 4 167.47V293.986V293.958Z" fill="white"/>
<path d="M598.685 0.0280896C597.927 0.0280896 597.14 0 596.382 0C433.771 0 301.918 131.544 301.357 293.986H598.713V0.0280896H598.685Z" fill="#A17EEF"/>
<path d="M598.685 294.042C435.035 292.778 301.918 424.771 301.357 588H414.108C516.046 588 598.713 505.36 598.713 403.395V294.014L598.685 294.042Z" fill="white"/>
<path d="M1915.47 74.241C1915.3 74.241 1915.13 74.241 1914.96 74.241C1879.38 74.241 1850.53 103.033 1850.39 138.594H1915.47V74.2691V74.241Z" fill="white"/>
<path d="M1016.43 261.964C1008.6 277.975 997.895 291.317 984.328 302.02C970.76 312.694 954.89 320.783 936.716 326.317C918.514 331.851 899.076 334.604 878.374 334.604H803.992V454.743H738.853V80.9824H886.211C907.924 80.9824 927.587 83.9318 945.199 89.8026C962.811 95.6733 977.755 104.128 990.058 115.167C1002.33 126.207 1011.77 139.381 1018.34 154.69C1024.92 169.998 1028.23 187.245 1028.23 206.487C1028.23 227.498 1024.3 246.009 1016.46 262.02L1016.43 261.964ZM939.497 157.133C924.834 145.869 905.199 140.252 880.565 140.252H803.964V275.334H880.565C905.564 275.334 925.283 269.183 939.75 256.852C954.216 244.52 961.435 228.172 961.435 207.807C961.435 185.307 954.103 168.425 939.469 157.161L939.497 157.133Z" fill="white"/>
<path d="M1219.86 462.72C1214.16 477.299 1208.29 489.602 1202.25 499.546C1196.18 509.518 1189.44 517.607 1181.97 523.843C1174.49 530.079 1166.29 534.602 1157.42 537.467C1148.51 540.304 1138.37 541.736 1127 541.736C1113.46 541.736 1101.46 540.191 1090.96 537.158C1080.45 534.096 1070.23 529.883 1060.25 524.489L1082.14 476.063C1088.18 479.265 1094.33 481.849 1100.56 483.816C1106.8 485.754 1113.29 486.765 1120.06 486.765C1129.3 486.765 1136.97 484.462 1143.01 479.855C1149.05 475.22 1154.75 466.709 1160.08 454.265L1042.61 172.835H1111.49L1191.57 382.131L1264.44 173.622C1264.61 173.144 1265.06 172.835 1265.53 172.835H1331.96L1219.86 462.748V462.72Z" fill="white"/>
<path d="M1638.62 180.673C1654.12 171.515 1672.52 166.937 1693.9 166.937C1724.88 166.937 1749.1 176.291 1766.54 194.97C1783.98 213.65 1792.72 240.279 1792.72 274.801V454.715H1727.58V294.913C1727.58 272.554 1722.61 255.503 1712.69 243.762C1702.78 232.048 1688.79 226.178 1670.7 226.178C1652.61 226.178 1638.54 232.133 1627.38 244.015C1616.23 255.897 1610.64 273.228 1610.64 295.952V454.687H1545.5V294.351C1545.5 272.329 1540.53 255.475 1530.61 243.734C1520.7 232.02 1506.71 226.15 1488.62 226.15C1470.53 226.15 1456.01 232.357 1445.05 244.801C1434.07 257.245 1428.57 274.464 1428.57 296.458V454.659H1363.43V172.807H1385.42C1409.24 172.807 1428.57 192.133 1428.57 215.953C1433.2 209.493 1438.17 203.397 1443.51 197.639C1448.85 191.88 1454.97 186.684 1461.91 182.021C1468.85 177.358 1476.68 173.678 1485.39 170.982C1494.1 168.285 1503.79 166.937 1514.46 166.937C1534.74 166.937 1551.91 171.515 1565.95 180.673C1580 189.83 1590.75 201.965 1598.23 217.049C1609.63 201.965 1623.06 189.858 1638.56 180.673H1638.62Z" fill="white"/>
<path d="M1850.42 454.715V172.807H1915.55V454.715H1850.42Z" fill="white"/>
<path d="M2052.21 389.828C2066.79 402.103 2084.6 408.255 2105.61 408.255C2121.62 408.255 2135.5 405.418 2147.27 399.715C2159.01 394.013 2170.58 385.671 2181.96 374.631L2219.88 408.255C2206.34 424.266 2190.24 437.075 2171.56 446.709C2152.88 456.316 2130.52 461.119 2104.57 461.119C2084.29 461.119 2065.33 457.552 2047.72 450.445C2030.1 443.339 2014.8 433.367 2001.79 420.558C1988.78 407.749 1978.56 392.356 1971.09 374.379C1963.62 356.401 1959.88 336.401 1959.88 314.323C1959.88 294.042 1963.25 274.998 1970.02 257.189C1976.79 239.408 1986.31 223.818 1998.59 210.476C2010.86 197.133 2025.36 186.543 2042.1 178.706C2058.81 170.869 2077.32 166.965 2097.63 166.965C2120.05 166.965 2139.71 171.066 2156.62 179.24C2173.53 187.442 2187.57 198.453 2198.81 212.33C2210.05 226.206 2218.47 242.414 2224.18 260.925C2229.88 279.436 2232.71 298.846 2232.71 319.126C2232.71 321.991 2232.63 324.829 2232.43 327.666C2232.27 330.531 2231.98 333.536 2231.65 336.738H2024.49C2028.39 359.884 2037.66 377.581 2052.24 389.856L2052.21 389.828ZM2168.61 293.986C2167.55 283.677 2165.22 273.958 2161.68 264.885C2158.11 255.812 2153.31 247.975 2147.27 241.402C2141.2 234.829 2134.01 229.577 2125.64 225.644C2117.27 221.74 2107.74 219.773 2097.07 219.773C2077.13 219.773 2060.67 226.627 2047.69 240.335C2034.68 254.043 2026.76 271.936 2023.92 293.986H2168.61Z" fill="white"/>
<path d="M2338.92 454.715H2273.78V172.807H2294.68C2319.12 172.807 2338.92 192.611 2338.92 217.049C2343.53 210.223 2348.58 203.847 2354.09 197.92C2359.6 191.993 2365.97 186.712 2373.25 182.021C2380.52 177.358 2388.53 173.678 2397.21 170.982C2405.89 168.285 2415.75 166.937 2426.76 166.937C2458.7 166.937 2483.36 176.74 2500.77 196.29C2518.16 215.869 2526.87 242.217 2526.87 275.307V454.687H2461.73V294.885C2461.73 272.863 2456.53 255.897 2446.11 244.015C2435.69 232.105 2420.97 226.178 2401.93 226.178C2382.88 226.178 2368.05 232.301 2356.42 244.548C2344.76 256.795 2338.95 273.93 2338.95 295.952V454.687L2338.92 454.715Z" fill="white"/>
<path d="M2659.26 366.513C2659.26 379.013 2662.29 388.03 2668.33 393.564C2674.37 399.097 2682.91 401.878 2693.95 401.878C2707.82 401.878 2721.17 398.676 2734 392.271V445.136C2725.8 449.771 2717.09 453.338 2707.85 455.81C2698.58 458.282 2687.91 459.546 2675.83 459.546C2663.75 459.546 2653.16 458.114 2643.13 455.277C2633.08 452.411 2624.37 447.777 2617.01 441.372C2609.65 434.94 2604 426.485 2600.04 415.951C2596.08 405.446 2594.12 392.328 2594.12 376.626V227.863H2558.33V172.863H2594.12V95.4485H2604.26C2634.62 95.4485 2659.23 120.055 2659.23 150.42V172.863H2735.04V227.863H2659.23V366.569L2659.26 366.513Z" fill="white"/>
<path d="M2948.1 419.996C2938.49 431.401 2926.22 441.007 2911.25 448.816C2896.3 456.653 2878.16 460.558 2856.78 460.558C2843.24 460.558 2830.43 458.676 2818.36 454.94C2806.25 451.204 2795.66 445.698 2786.59 438.395C2777.51 431.092 2770.21 422.019 2764.7 411.176C2759.17 400.333 2756.42 387.777 2756.42 373.536V372.469C2756.42 357.16 2759.25 343.817 2764.96 332.413C2770.66 321.036 2778.58 311.598 2788.72 304.126C2798.86 296.655 2810.97 291.037 2825.04 287.301C2839.09 283.565 2854.31 281.683 2870.69 281.683C2887.06 281.683 2902.26 282.75 2914.2 284.885C2926.11 287.02 2937.6 289.885 2948.63 293.424V286.486C2948.63 266.908 2942.68 251.964 2930.74 241.627C2918.8 231.318 2901.64 226.15 2879.23 226.15C2863.21 226.15 2848.97 227.751 2836.5 230.953C2824.03 234.155 2811.42 238.425 2798.58 243.762L2780.97 191.965C2796.61 184.858 2812.65 179.156 2829.03 174.886C2845.41 170.616 2865.15 168.482 2888.3 168.482C2930.29 168.482 2961.44 178.903 2981.72 199.717C3002 220.532 3012.15 249.829 3012.15 287.554V454.659H2982.79C2963.63 454.659 2948.1 439.125 2948.1 419.968V419.996ZM2949.7 335.109C2941.5 331.907 2931.81 329.239 2920.6 327.104C2909.39 324.969 2897.54 323.902 2885.1 323.902C2864.82 323.902 2848.97 327.834 2837.57 335.643C2826.16 343.48 2820.49 354.688 2820.49 369.266V370.334C2820.49 383.873 2825.74 394.182 2836.25 401.288C2846.75 408.423 2859.65 411.963 2874.96 411.963C2885.63 411.963 2895.52 410.558 2904.59 407.693C2913.66 404.856 2921.58 400.839 2928.35 395.671C2935.12 390.502 2940.38 384.294 2944.11 376.991C2947.85 369.688 2949.73 361.598 2949.73 352.693V335.081L2949.7 335.109Z" fill="white"/>
</g>
</g>
<defs>
<filter id="filter0_d_51_19" x="0" y="0" width="3016.17" height="596" filterUnits="userSpaceOnUse" color-interpolation-filters="sRGB">
<feFlood flood-opacity="0" result="BackgroundImageFix"/>
<feColorMatrix in="SourceAlpha" type="matrix" values="0 0 0 0 0 0 0 0 0 0 0 0 0 0 0 0 0 0 127 0" result="hardAlpha"/>
<feOffset dy="4"/>
<feGaussianBlur stdDeviation="2"/>
<feComposite in2="hardAlpha" operator="out"/>
<feColorMatrix type="matrix" values="0 0 0 0 0 0 0 0 0 0 0 0 0 0 0 0 0 0 0.25 0"/>
<feBlend mode="normal" in2="BackgroundImageFix" result="effect1_dropShadow_51_19"/>
<feBlend mode="normal" in="SourceGraphic" in2="effect1_dropShadow_51_19" result="shape"/>
</filter>
<clipPath id="clip0_51_19">
<rect width="3008.17" height="588" fill="white" transform="translate(4)"/>
</clipPath>
</defs>
</svg>
